<?xml version="1.0" encoding="UTF-8"?>
<svg version="1.1" xmlns="http://www.w3.org/2000/svg" width="347" height="214">
<path d="M0 0 C1.23627136 -0.00426498 2.47254272 -0.00852997 3.74627686 -0.01292419 C5.10855106 -0.01257471 6.47082523 -0.01211319 7.83309937 -0.0115509 C9.2740996 -0.01454461 10.71509903 -0.01794763 12.15609741 -0.02172852 C16.06551044 -0.03055411 19.97490157 -0.03290611 23.8843236 -0.0335443 C26.33058301 -0.03425596 28.7768369 -0.03639254 31.22309494 -0.03904152 C39.76855573 -0.04829225 48.31400093 -0.052377 56.85946655 -0.05158997 C64.80565329 -0.05099019 72.75177191 -0.06152293 80.69794142 -0.07733363 C87.53382962 -0.0904469 94.36969567 -0.09577223 101.20559633 -0.09513456 C105.28205343 -0.09488055 109.35845007 -0.09767711 113.43489456 -0.10831261 C117.27462215 -0.11805675 121.11423229 -0.11802989 124.95396423 -0.11079597 C126.35549976 -0.10975773 127.75704284 -0.11206731 129.15856552 -0.11815643 C145.5802842 -0.18482374 159.4964737 2.14944544 171.81893921 13.86808777 C180.05266973 23.03423691 184.94303901 34.06362549 185.00126648 46.43095398 C185.01199944 48.00335846 185.01199944 48.00335846 185.02294922 49.60752869 C185.02563812 50.74732178 185.02832703 51.88711487 185.03109741 53.06144714 C185.03766861 54.27024536 185.04423981 55.47904358 185.05101013 56.72447205 C185.07072136 60.72547151 185.08240989 64.72643092 185.09237671 68.72746277 C185.0964277 70.11058572 185.10054472 71.49370849 185.10472679 72.87683105 C185.12376762 79.38071114 185.13799771 85.88458 185.14633876 92.38848257 C185.15608985 99.86624352 185.18235791 107.34370678 185.22283965 114.82136297 C185.25313809 120.61949823 185.26782077 126.41754886 185.27111977 132.21576166 C185.27345578 135.66976318 185.28222368 139.12344634 185.30758095 142.57736206 C185.33549496 146.4419422 185.33098886 150.3061406 185.32406616 154.17082214 C185.34328125 155.85622101 185.34328125 155.85622101 185.36288452 157.57566833 C185.27001413 171.89750808 180.42813301 184.36034473 170.72909546 194.88371277 C157.85663576 207.16908394 141.71635649 208.28483447 124.88583374 208.27897644 C123.48217683 208.281973 122.07852075 208.28537667 120.67486572 208.28915405 C116.88139612 208.29794677 113.08794912 208.30033014 109.29447031 208.30096984 C106.9197291 208.30168292 104.54499355 208.3038221 102.17025375 208.30646706 C93.8723184 208.31570418 85.57439906 208.31980391 77.27645874 208.3190155 C69.56251596 208.31841485 61.84864314 208.32896839 54.13471806 208.34475917 C47.49326314 208.35786625 40.85183101 208.36319809 34.21036327 208.36256009 C30.25191271 208.36230608 26.29352441 208.36510388 22.33508682 208.37573814 C18.61023002 208.38547289 14.88549435 208.38546177 11.16063309 208.37822151 C9.15636859 208.37669016 7.15210396 208.3849843 5.14785767 208.3936615 C-1.87003682 208.36941046 -8.33670103 207.84913736 -15.14590454 206.13371277 C-15.91268461 205.95291263 -16.67946468 205.77211248 -17.46948051 205.58583355 C-28.11325227 202.91573411 -36.55860785 194.77192407 -42.52481079 185.90324402 C-48.67335935 175.39885625 -49.29461742 165.7292241 -49.33877563 153.811203 C-49.34695312 152.58421188 -49.35513062 151.35722076 -49.36355591 150.0930481 C-49.38831499 146.04280411 -49.40506834 141.99259721 -49.41934204 137.94230652 C-49.42470869 136.54000914 -49.4300862 135.1377118 -49.4354744 133.73541451 C-49.45708025 127.89587896 -49.47581132 122.05634598 -49.48709679 116.21678066 C-49.50330369 107.88981619 -49.53642793 99.56332051 -49.59349763 91.23653263 C-49.63239018 85.35851456 -49.65175219 79.48062084 -49.65701735 73.60247761 C-49.66064491 70.10312241 -49.67238463 66.60426902 -49.70512009 63.10505486 C-50.00765381 29.10841628 -50.00765381 29.10841628 -38.14590454 16.13371277 C-37.63414673 15.53172058 -37.12238892 14.92972839 -36.59512329 14.30949402 C-29.77770489 6.80870671 -21.05953959 2.68622543 -11.14590454 1.13371277 C-10.40496363 0.96478358 -9.66402271 0.7958544 -8.90062904 0.62180614 C-5.87935301 0.08648408 -3.06846533 0.00479463 0 0 Z M-22.14590454 27.13371277 C-26.72002444 33.2292462 -29.23123928 38.59259291 -29.33103943 46.21026611 C-29.34660889 47.23480896 -29.36217834 48.25935181 -29.3782196 49.31494141 C-29.39025925 50.43341965 -29.40229889 51.55189789 -29.41470337 52.70426941 C-29.43102814 53.88687347 -29.44735291 55.06947754 -29.46417236 56.28791809 C-29.51623971 60.20651356 -29.56049245 64.12516122 -29.60293579 68.04386902 C-29.61814346 69.39700822 -29.6334044 70.75014683 -29.64871788 72.10328484 C-29.72004549 78.46509484 -29.78653623 84.82693379 -29.84730703 91.18885332 C-29.91743093 98.51057005 -30.00430092 105.83183807 -30.10548955 113.15318972 C-30.18276969 118.82546635 -30.24415043 124.49778297 -30.2938959 130.17036718 C-30.32393478 133.5517528 -30.36061173 136.93274326 -30.41419411 140.31384468 C-30.47017784 144.09512313 -30.50014198 147.87579532 -30.52407837 151.65739441 C-30.54623917 152.76170303 -30.56839996 153.86601166 -30.5912323 155.00378418 C-30.60555615 165.17705074 -28.23084216 173.99637432 -21.07168579 181.47746277 C-14.55048073 187.08596368 -7.45882461 188.25387927 0.97512817 188.26742554 C2.18056274 188.27169052 3.38599731 188.27595551 4.62796021 188.28034973 C5.93718445 188.27989655 7.24640869 188.27944336 8.5953064 188.27897644 C9.9986683 188.28197117 11.40202939 188.28537442 12.8053894 188.28915405 C16.60724161 188.29796753 20.40907129 188.30033108 24.21093273 188.30096984 C26.59001841 188.30168198 28.96909841 188.30381944 31.34818268 188.30646706 C39.65907656 188.31571254 47.96995442 188.31980305 56.28085327 188.3190155 C64.00952327 188.3184153 71.73812334 188.3289578 79.46677566 188.34475917 C86.11668275 188.35786712 92.76656708 188.36319802 99.41648698 188.36256009 C103.38167421 188.36230601 107.34679929 188.36510722 111.31197357 188.37573814 C115.04501154 188.38547378 118.77792865 188.38546115 122.51097107 188.37822151 C124.52002554 188.37669007 126.52908014 188.38498457 128.53811646 188.3936615 C138.79965285 188.35828597 148.73754491 188.09315177 156.85409546 181.13371277 C162.65765699 174.93649881 164.96654254 170.36921013 164.99453735 161.84751892 C165.0002475 160.80188278 165.00595764 159.75624664 165.01184082 158.67892456 C165.01295868 157.54219803 165.01407654 156.4054715 165.01522827 155.23429871 C165.02019318 154.02882889 165.02515808 152.82335907 165.03027344 151.58135986 C165.04235819 148.28155392 165.04983402 144.98181114 165.0542841 141.68199062 C165.05722201 139.61699847 165.06132817 137.55201179 165.06578827 135.4870224 C165.07945233 129.01625113 165.08912412 122.54549244 165.09299016 116.07470775 C165.09746731 108.62356122 165.1150037 101.17259846 165.14399076 93.72150779 C165.16565955 87.94976041 165.17569722 82.17806454 165.17703128 76.40627694 C165.17807567 72.96476171 165.18390474 69.52341947 165.20185089 66.08194733 C165.21894696 62.23805911 165.21702203 58.394616 165.21054077 54.55070496 C165.22436295 52.85776054 165.22436295 52.85776054 165.23846436 51.13061523 C165.18707089 41.37714863 163.5362498 34.05576136 156.75643921 26.86027527 C150.96570833 21.60462219 145.32192065 20.01159954 137.64294434 20 C136.36716522 19.99573502 135.09138611 19.99147003 133.77694702 19.98707581 C132.3653259 19.98742531 130.9537048 19.98788684 129.54208374 19.9884491 C128.05371008 19.98545654 126.5653372 19.98205378 125.07696533 19.97827148 C121.03560176 19.96943715 116.99425936 19.96709361 112.95288706 19.9664557 C110.42743999 19.96574487 107.90199831 19.96360994 105.37655258 19.96095848 C96.56453866 19.95170694 87.75253986 19.94762336 78.94052124 19.94841003 C70.7289835 19.94901078 62.51751146 19.93845904 54.30599034 19.92266637 C47.25364184 19.90958683 40.20131481 19.90422631 33.14895427 19.90486544 C28.93794436 19.90512031 24.72699284 19.90227539 20.51599503 19.89168739 C16.55482247 19.88199946 12.59376404 19.88193199 8.63258743 19.88920403 C7.1805759 19.890249 5.72855723 19.88789212 4.27655792 19.88184357 C2.29079103 19.87410872 0.30498518 19.87997455 -1.68078613 19.88647461 C-2.79096037 19.88592984 -3.90113461 19.88538507 -5.04495049 19.8848238 C-11.4432497 20.39836449 -17.29477031 22.95768668 -22.14590454 27.13371277 Z " fill="#6EE0E0" transform="translate(52.145904541015625,4.8662872314453125)"/>
<path d="M0 0 C5.14482294 2.93696479 8.96690578 5.83243811 10.87298584 11.56370544 C12.41721653 18.04254242 12.09133899 24.68954288 12.07128906 31.30883789 C12.07400258 32.81588408 12.07756554 34.32292894 12.08190918 35.82997131 C12.09099175 39.90425117 12.08750625 43.97842923 12.08115101 48.05271077 C12.0760705 52.32554339 12.08078807 56.59836758 12.08392334 60.87120056 C12.08755662 68.04411374 12.08278023 75.21698567 12.07324219 82.38989258 C12.06235471 90.67307274 12.06588791 98.95615447 12.076895 107.23933226 C12.08598111 114.36311943 12.0872468 121.48687703 12.08201766 128.61066812 C12.07890578 132.86020835 12.07846719 137.10970235 12.08509064 141.35923958 C12.09088289 145.3541301 12.0868329 149.34889408 12.07530212 153.34377098 C12.07266576 154.80664994 12.07340309 156.26953961 12.07782745 157.73241425 C12.08332453 159.73514415 12.07519682 161.73789742 12.06646729 163.74061584 C12.06571323 164.8594217 12.06495918 165.97822756 12.06418228 167.13093662 C11.55561349 173.68614337 9.80287457 178.95750007 4.8125 183.375 C-0.27060067 187.10645799 -5.07292614 187.83145092 -11.28125 187.90625 C-18.42140374 186.60106061 -23.92403888 182.30778273 -29.375 177.75 C-30.67887203 176.68389771 -31.98357559 175.61881169 -33.2890625 174.5546875 C-33.9377832 174.02327148 -34.58650391 173.49185547 -35.25488281 172.94433594 C-38.21629229 170.53959363 -41.22649641 168.2009081 -44.25 165.875 C-45.25160156 165.1015625 -46.25320313 164.328125 -47.28515625 163.53125 C-49.35487478 161.99358563 -51.3895912 160.59492721 -53.55859375 159.21875 C-54.42613281 158.6103125 -55.29367187 158.001875 -56.1875 157.375 C-56.1875 156.715 -56.1875 156.055 -56.1875 155.375 C-57.2703125 154.99601562 -57.2703125 154.99601562 -58.375 154.609375 C-66.60647612 150.99667159 -73.58689377 144.0189397 -77.9375 136.25 C-81.94905188 125.7543674 -80.34172216 112.52271249 -80.31787109 101.45214844 C-80.31257452 98.54096105 -80.31780863 95.62993231 -80.32421875 92.71875 C-80.32800697 86.93657454 -80.27463378 81.15648309 -80.1875 75.375 C-80.17424683 74.37529175 -80.16099365 73.3755835 -80.14733887 72.34558105 C-80.09776241 69.37254659 -80.01855621 66.40178236 -79.9296875 63.4296875 C-79.91608185 62.53686066 -79.9024762 61.64403381 -79.88845825 60.72415161 C-79.61570325 53.42515833 -77.64569863 48.13501301 -72.76953125 42.66015625 C-64.21841494 35.09222427 -55.31237587 28.13215231 -46.1484375 21.328125 C-42.52406094 18.63573098 -38.94392154 15.89025567 -35.375 13.125 C-31.33377101 10.01250066 -27.28332321 6.91542417 -23.1875 3.875 C-22.341875 3.2459375 -21.49625 2.616875 -20.625 1.96875 C-14.10124976 -2.296779 -7.18551823 -3.30368654 0 0 Z M-14.65234375 21.9453125 C-15.36068359 22.50524902 -16.06902344 23.06518555 -16.79882812 23.64208984 C-17.56646484 24.2552002 -18.33410156 24.86831055 -19.125 25.5 C-25.72491664 30.70954491 -32.3971502 35.79123542 -39.1875 40.75 C-50.52586076 47.88051507 -50.52586076 47.88051507 -59.1875 57.375 C-59.32582394 59.60884412 -59.39924583 61.84679446 -59.44384766 64.08447266 C-59.45845032 64.77417145 -59.47305298 65.46387024 -59.48809814 66.17446899 C-59.61422825 72.5447907 -59.68289069 78.91635856 -59.73594093 85.28766823 C-59.77166984 89.5659176 -59.82488521 93.84228134 -59.92138672 98.11962891 C-60.01448682 102.25889709 -60.06290475 106.39649873 -60.08033371 110.53675461 C-60.09438345 112.11011649 -60.12392381 113.68342318 -60.16963577 115.25618362 C-60.59878397 124.12206541 -60.59878397 124.12206541 -57.25964355 132.06417847 C-54.9979394 134.10253196 -52.7555228 135.74801233 -50.1875 137.375 C-48.87243793 138.38317354 -47.56365085 139.39967244 -46.265625 140.4296875 C-44.99253193 141.37378083 -43.71644208 142.31384546 -42.4375 143.25 C-41.04371786 144.28180554 -39.65049669 145.31436922 -38.2578125 146.34765625 C-37.23155762 147.10780029 -37.23155762 147.10780029 -36.18457031 147.88330078 C-33.19806852 150.11404968 -30.25642327 152.40107356 -27.3125 154.6875 C-23.42018506 157.67935402 -19.52550219 160.66469782 -15.5625 163.5625 C-14.78648437 164.13355469 -14.01046875 164.70460937 -13.2109375 165.29296875 C-12.54320312 165.65003906 -11.87546875 166.00710937 -11.1875 166.375 C-10.1975 166.045 -9.2075 165.715 -8.1875 165.375 C-8.16414901 146.92958487 -8.14650999 128.48417273 -8.13568783 110.03874588 C-8.13052956 101.47439327 -8.12349576 92.91004984 -8.11206055 84.34570312 C-8.10209942 76.88181323 -8.09564316 69.41792997 -8.09341151 61.95403361 C-8.09210684 58.00126113 -8.08903631 54.04850767 -8.08176994 50.09574127 C-8.07498722 46.37596566 -8.07288765 42.65621691 -8.07439232 38.9364357 C-8.07398565 36.91901558 -8.06860216 34.90159839 -8.06307983 32.88418579 C-8.0644545 31.68387726 -8.06582916 30.48356873 -8.06724548 29.24688721 C-8.06632369 28.20341755 -8.0654019 27.15994789 -8.06445217 26.08485794 C-8.17359706 23.68118176 -8.49555897 21.66937781 -9.1875 19.375 C-11.84309281 19.375 -12.58856088 20.29674277 -14.65234375 21.9453125 Z " fill="#6DE0E0" transform="translate(332.1875,15.625)"/>
<path d="M0 0 C20.27088387 0.06049523 40.54163481 0.13796721 60.81237411 0.23571491 C70.22418855 0.28070279 79.6359649 0.32011052 89.04785156 0.34643555 C97.25014124 0.36939144 105.45231066 0.40276237 113.65450501 0.44870156 C117.99852685 0.47266638 122.34242935 0.49137375 126.68651581 0.49761391 C130.77413137 0.50365009 134.86144148 0.52359641 138.94894409 0.55427551 C140.45014579 0.56307936 141.95138736 0.56677347 143.45261383 0.56500816 C145.50065045 0.56336004 147.54867402 0.58179204 149.59661865 0.60127258 C150.74332912 0.60588155 151.8900396 0.61049051 153.07149887 0.61523914 C156 1 156 1 160 4 C106.87 4 53.74 4 -1 4 C-0.67 2.68 -0.34 1.36 0 0 Z " fill="#B0E8E9" transform="translate(40,22)"/>
<path d="M0 0 C1.32 0 2.64 0 4 0 C4 0.66 4 1.32 4 2 C6.97 2.495 6.97 2.495 10 3 C10 3.66 10 4.32 10 5 C13.68050741 6.17776237 17.16162601 6.06978862 21 6 C21.99 6 22.98 6 24 6 C24.33 6.33 24.66 6.66 25 7 C27.01228045 7.09674566 29.02801369 7.12187008 31.0426178 7.12025452 C33.01359184 7.12231651 33.01359184 7.12231651 35.02438354 7.12442017 C36.49420188 7.12088054 37.96402 7.11724573 39.43383789 7.11352539 C40.97091164 7.11324353 42.50798553 7.11340123 44.0450592 7.1139679 C48.2308286 7.11425591 52.41656959 7.10835852 56.60233235 7.10139394 C60.97190156 7.09516109 65.34147135 7.09455666 69.71104431 7.09336853 C77.99127047 7.09025501 86.2714835 7.08204135 94.55170387 7.07201904 C103.97597159 7.06085854 113.40023992 7.05534761 122.8245126 7.05032361 C142.21634919 7.03985875 161.60817354 7.02225891 181 7 C177.4976802 9.1514587 174.7024352 9.25127487 170.63267517 9.25396729 C168.66673904 9.26242676 168.66673904 9.26242676 166.66108704 9.27105713 C165.21017401 9.26716844 163.75926153 9.2630721 162.30834961 9.25878906 C160.77882724 9.26149953 159.24930618 9.26506078 157.7197876 9.26940918 C153.56442723 9.27853422 149.40916609 9.27498703 145.25380397 9.26865101 C140.8987379 9.26358521 136.5436803 9.26828467 132.18861389 9.27142334 C124.86734495 9.275064 117.54611633 9.2702641 110.22485352 9.26074219 C101.78051438 9.24988588 93.33627203 9.25336221 84.89193529 9.264395 C77.63143717 9.27349907 70.37096805 9.27473709 63.11046606 9.26951766 C58.77913777 9.2664114 54.44785479 9.26595088 50.11652946 9.27259064 C46.03632 9.27840791 41.95623387 9.27428779 37.8760376 9.26280212 C36.3858161 9.26017758 34.89558407 9.26088246 33.4053669 9.26532745 C11.08065022 9.32572794 11.08065022 9.32572794 3.8125 3.9375 C3.07644531 3.41027344 2.34039063 2.88304687 1.58203125 2.33984375 C1.05996094 1.89769531 0.53789062 1.45554688 0 1 C0 0.67 0 0.34 0 0 Z " fill="#7EE5E2" transform="translate(21,202)"/>
<path d="M0 0 C0 0.66 0 1.32 0 2 C-0.825 2.474375 -1.65 2.94875 -2.5 3.4375 C-3.325 3.953125 -4.15 4.46875 -5 5 C-5 5.99 -5 6.98 -5 8 C-7.54939416 9.79957235 -10.16464258 11.07546118 -13 12.375 C-17.69812529 14.91981787 -21.93179968 18.70564526 -23.62471008 23.92662048 C-25.31386515 31.8399165 -25.27288027 39.70520225 -25.23046875 47.75390625 C-25.22927346 49.26504985 -25.22882452 50.77619421 -25.2290802 52.28733826 C-25.2275252 55.4382703 -25.21931153 58.58908716 -25.20581055 61.73999023 C-25.18880774 65.75652175 -25.18499733 69.7729274 -25.18575573 73.7894907 C-25.18548241 76.90464962 -25.17997559 80.01978165 -25.17275429 83.13493156 C-25.16959757 84.61514012 -25.16760732 86.09535169 -25.16686058 87.57556343 C-25.15889106 95.11248465 -25.03871454 102.52280948 -24 110 C-30.49791572 103.50208428 -28.1224302 88.57002301 -28.13787842 79.92181396 C-28.13709892 77.97359067 -28.13456845 76.02536737 -28.13037109 74.07714844 C-28.12507452 71.16596105 -28.13030863 68.25493231 -28.13671875 65.34375 C-28.14050697 59.56157454 -28.08713378 53.78148309 -28 48 C-27.98674683 47.00029175 -27.97349365 46.0005835 -27.95983887 44.97058105 C-27.91026241 41.99754659 -27.83105621 39.02678236 -27.7421875 36.0546875 C-27.72858185 35.16186066 -27.7149762 34.26903381 -27.70095825 33.34915161 C-27.42927025 26.07871166 -25.46841549 20.78967549 -20.62890625 15.3203125 C-17.76671733 12.79410118 -14.88550184 10.30014868 -11.9375 7.875 C-11.42123047 7.44574219 -10.90496094 7.01648437 -10.37304688 6.57421875 C-2.43341346 0 -2.43341346 0 0 0 Z " fill="#D1F1F0" transform="translate(280,43)"/>
<path d="M0 0 C2.87482078 2.44770455 3.89440249 4.83824337 5.125 8.375 C5.45757812 9.31085937 5.79015625 10.24671875 6.1328125 11.2109375 C7.50982948 15.63972185 8.12521256 19.69405034 8.13371277 24.33088684 C8.13797775 25.38638229 8.14224274 26.44187775 8.14663696 27.52935791 C8.14618378 28.67700623 8.14573059 29.82465454 8.14526367 31.00708008 C8.14862228 32.22390976 8.1519809 33.44073944 8.15544128 34.69444275 C8.1633055 38.02517522 8.16661841 41.35584535 8.16725707 44.6865828 C8.16796902 46.7703282 8.17010611 48.85406711 8.17275429 50.9378109 C8.18200034 58.21546212 8.18609017 65.49309505 8.18530273 72.77075195 C8.18470239 79.54116619 8.19524757 86.31150064 8.2110464 93.0818947 C8.22414862 98.90543071 8.2294855 104.72894074 8.22884732 110.55249137 C8.22859309 114.02578933 8.23140278 117.49901637 8.24202538 120.97229958 C8.25356088 124.8498098 8.24894313 128.72721177 8.24291992 132.60473633 C8.24853943 133.74631195 8.25415894 134.88788757 8.25994873 136.0640564 C8.23628101 142.06750403 7.75570706 147.25002606 6 153 C5.67 153 5.34 153 5 153 C4.87475516 146.6125133 4.87475516 146.6125133 5.49512863 143.57855988 C6.00757652 140.96130399 6.13126342 138.59469151 6.14044189 135.93054199 C6.14615204 134.93275726 6.15186218 133.93497253 6.15774536 132.9069519 C6.15886322 131.82326324 6.15998108 130.73957458 6.16113281 129.62304688 C6.16609772 128.47277008 6.17106262 127.32249329 6.17617798 126.13735962 C6.19078349 122.33115031 6.19760032 118.52498273 6.203125 114.71875 C6.20742429 112.73727237 6.21172412 110.75579473 6.2160995 108.77431726 C6.22790259 103.24960704 6.23544446 97.72490685 6.2388947 92.2001853 C6.24336343 85.08583777 6.26085867 77.97168352 6.2898953 70.8573947 C6.31162364 65.33951037 6.32160501 59.82167996 6.32293582 54.30375338 C6.32397661 51.01747477 6.33120827 47.73141761 6.34775543 44.44517517 C6.36494667 40.76734091 6.36290322 37.08996829 6.35644531 33.41210938 C6.37026749 31.81086716 6.37026749 31.81086716 6.3843689 30.17727661 C6.34191208 22.39861952 6.25020601 12.30244821 1.39592361 5.8766098 C0 4 0 4 0 0 Z " fill="#F3FAF9" transform="translate(229,27)"/>
<path d="M0 0 C0.66 0.33 1.32 0.66 2 1 C0.87926138 1.83905565 -0.24674547 2.67107831 -1.375 3.5 C-2.31472656 4.19609375 -2.31472656 4.19609375 -3.2734375 4.90625 C-5 6 -5 6 -7 6 C-11.4133976 14.71788709 -13.59395725 21.75944321 -13.54589844 31.60009766 C-13.55623611 32.71346497 -13.56657379 33.82683228 -13.57722473 34.97393799 C-13.60650888 38.62079632 -13.60814892 42.26709616 -13.609375 45.9140625 C-13.62436628 48.45568898 -13.64109541 50.99730575 -13.65948486 53.53890991 C-13.69861974 59.5239065 -13.72034612 65.50871677 -13.73345876 71.49380624 C-13.74938555 78.31383579 -13.78782465 85.13368219 -13.82805204 91.95360494 C-13.91022305 105.9690081 -13.96445712 119.98440649 -14 134 C-14.33 134 -14.66 134 -15 134 C-15 92.75 -15 51.5 -15 9 C-13.35 8.34 -11.7 7.68 -10 7 C-8.07227878 5.5639636 -8.07227878 5.5639636 -6.375 3.9375 C-4.10634432 1.83822359 -3.01262501 1.00420834 0 0 Z " fill="#FAFDFD" transform="translate(37,26)"/>
<path d="M0 0 C1.32 0 2.64 0 4 0 C4 49.83 4 99.66 4 151 C-1 150 -1 150 -3 149 C-2.505 148.01 -2.505 148.01 -2 147 C-0.68 147.33 0.64 147.66 2 148 C2 99.82 2 51.64 2 2 C1.34 2 0.68 2 0 2 C0 1.34 0 0.68 0 0 Z " fill="#E1F3F4" transform="translate(321,33)"/>
<path d="M0 0 C0.33 0 0.66 0 1 0 C1.33 2.64 1.66 5.28 2 8 C1.34 8 0.68 8 0 8 C0 8.66 0 9.32 0 10 C-0.66 10 -1.32 10 -2 10 C-2.33 51.91 -2.66 93.82 -3 137 C-3.33 137 -3.66 137 -4 137 C-4.04686101 121.56120794 -4.08205762 106.12242124 -4.10362434 90.68357468 C-4.11390732 83.5139604 -4.1279102 76.34439048 -4.15087891 69.17480469 C-4.17090452 62.92087498 -4.18373805 56.66697744 -4.18817699 50.41301656 C-4.19076896 47.10605587 -4.19787118 43.79920778 -4.21146011 40.49227142 C-4.22607247 36.78743641 -4.22797386 33.08278909 -4.22705078 29.37792969 C-4.23424133 28.29898438 -4.24143188 27.22003906 -4.24884033 26.10839844 C-4.22483292 17.14756706 -3.58754392 8.3033918 0 0 Z " fill="#89E2DE" transform="translate(8,29)"/>
<path d="M0 0 C0.33 0 0.66 0 1 0 C1.00146656 0.62376935 1.00293312 1.2475387 1.00444412 1.89021015 C1.041587 17.10751938 1.10070016 32.32457379 1.18390274 47.54169178 C1.22361679 54.90076346 1.25604784 62.25972938 1.27099609 69.61889648 C1.28405244 76.037377 1.31111774 82.45562407 1.35461307 88.87397307 C1.37713918 92.2686742 1.39291606 95.66308838 1.39188385 99.05787086 C1.39425974 102.85900153 1.4213925 106.65923061 1.45410156 110.46020508 C1.4490712 111.57079788 1.44404083 112.68139069 1.43885803 113.82563782 C1.52657199 120.4458038 2.60648732 125.71135994 5.14419174 131.83928967 C6 134 6 134 6 136 C5.34 136 4.68 136 4 136 C-1.05737167 129.12197454 -0.13905285 120.99017975 -0.11352539 112.84423828 C-0.11367142 111.6241658 -0.11381744 110.40409332 -0.1139679 109.14704895 C-0.11339205 105.81484138 -0.1083888 102.48269633 -0.10139394 99.15049982 C-0.09512786 95.66315045 -0.09455403 92.17580018 -0.09336853 88.68844604 C-0.0902648 82.09064317 -0.08206435 75.49285693 -0.07201904 68.89506137 C-0.06082813 61.38116182 -0.05533995 53.86726146 -0.05032361 46.35335565 C-0.03988091 30.90222747 -0.02230006 15.45111589 0 0 Z " fill="#9DE7E8" transform="translate(21,46)"/>
<path d="M0 0 C1.32 0 2.64 0 4 0 C4 0.66 4 1.32 4 2 C6.97 2.495 6.97 2.495 10 3 C10 3.66 10 4.32 10 5 C13.68050741 6.17776237 17.16162601 6.06978862 21 6 C21.99 6 22.98 6 24 6 C24.33 6.33 24.66 6.66 25 7 C27.88252645 7.16023562 30.74378527 7.25954029 33.62890625 7.31640625 C34.92525246 7.3475779 34.92525246 7.3475779 36.24778748 7.37937927 C39.01927445 7.44497114 41.79085921 7.50380418 44.5625 7.5625 C46.43685923 7.60567608 48.31120843 7.64929006 50.18554688 7.69335938 C54.79026336 7.80066227 59.39507858 7.90190215 64 8 C64 8.33 64 8.66 64 9 C57.93515185 9.04980923 51.87042542 9.08591175 45.80541992 9.10986328 C43.74647952 9.11985892 41.68755309 9.13345992 39.62866211 9.15087891 C36.6521457 9.17541262 33.67581859 9.18654775 30.69921875 9.1953125 C29.7935466 9.20563507 28.88787445 9.21595764 27.95475769 9.22659302 C19.75103343 9.22800115 10.61792062 8.98268432 3.8125 3.9375 C3.07644531 3.41027344 2.34039063 2.88304687 1.58203125 2.33984375 C1.05996094 1.89769531 0.53789062 1.45554688 0 1 C0 0.67 0 0.34 0 0 Z " fill="#7CE2E3" transform="translate(21,202)"/>
<path d="M0 0 C3.95137206 2.2013656 6.78271794 5.04223973 9.8125 8.375 C9.4825 9.365 9.1525 10.355 8.8125 11.375 C7.10365995 9.75160195 5.43803283 8.08180947 3.8125 6.375 C3.8125 5.715 3.8125 5.055 3.8125 4.375 C3.1525 4.375 2.4925 4.375 1.8125 4.375 C1.8125 3.715 1.8125 3.055 1.8125 2.375 C-3.03270419 1.08294555 -8.20790564 0.85500696 -13.1875 1.375 C-13.8475 2.035 -14.5075 2.695 -15.1875 3.375 C-15.8475 3.375 -16.5075 3.375 -17.1875 3.375 C-17.6 3.849375 -18.0125 4.32375 -18.4375 4.8125 C-20.84538428 6.96239668 -23.04158584 7.02545398 -26.1875 7.375 C-19.1623686 -0.52827282 -10.21404525 -4.63036718 0 0 Z " fill="#D3F1F1" transform="translate(332.1875,15.625)"/>
<path d="M0 0 C0.66 0 1.32 0 2 0 C1 3 1 3 -1.3125 4.25 C-4.07990329 6.05203005 -4.58935806 6.80371612 -6 9.625 C-6.99 11.295625 -6.99 11.295625 -8 13 C-10.5625 13.625 -10.5625 13.625 -13 14 C-14.03013277 15.64821244 -15.03114628 17.31503702 -16 19 C-18.17024029 19.85494315 -19.68297038 20 -22 20 C-22.66 19.67 -23.32 19.34 -24 19 C-17.24852602 13.37820178 -10.39508388 7.97630889 -3.3359375 2.75 C-1.15534055 1.20265764 -1.15534055 1.20265764 0 0 Z " fill="#A5E9E9" transform="translate(304,23)"/>
<path d="M0 0 C0 0.66 0 1.32 0 2 C-0.78375 2.45375 -1.5675 2.9075 -2.375 3.375 C-5.15619017 5.09668915 -6.06355738 5.90973935 -7 9 C-6.60061233 11.09821215 -6.60061233 11.09821215 -6 13 C-7.39195915 15.7839183 -9.15575779 15.97898997 -12 17 C-12 16.34 -12 15.68 -12 15 C-13.65 15.66 -15.3 16.32 -17 17 C-14.67094588 10.9444593 -7.03849079 0 0 0 Z " fill="#9CE8E6" transform="translate(26,12)"/>
<path d="M0 0 C2.74967731 1.29055736 5.07873302 2.71084296 7.453125 4.6015625 C8.38125 5.33632812 8.38125 5.33632812 9.328125 6.0859375 C9.96234375 6.59382812 10.5965625 7.10171875 11.25 7.625 C11.8996875 8.140625 12.549375 8.65625 13.21875 9.1875 C14.81503967 10.45514179 16.40786526 11.72714361 18 13 C17.01 13.495 17.01 13.495 16 14 C15.34 13.67 14.68 13.34 14 13 C14 13.66 14 14.32 14 15 C12.68 14.34 11.36 13.68 10 13 C10 11.68 10 10.36 10 9 C7.15389899 6.86542424 4.491933 5.64665426 1 5 C0.67 3.35 0.34 1.7 0 0 Z " fill="#C0EDEC" transform="translate(277,149)"/>
<path d="M0 0 C0.66 0.33 1.32 0.66 2 1 C0.87926138 1.83905565 -0.24674547 2.67107831 -1.375 3.5 C-2.31472656 4.19609375 -2.31472656 4.19609375 -3.2734375 4.90625 C-5 6 -5 6 -7 6 C-7.268125 6.53625 -7.53625 7.0725 -7.8125 7.625 C-9.20833333 10.41666667 -10.60416667 13.20833333 -12 16 C-12.66 16 -13.32 16 -14 16 C-14.33 13.69 -14.66 11.38 -15 9 C-14.319375 8.79375 -13.63875 8.5875 -12.9375 8.375 C-9.59777035 6.81172229 -7.33623587 4.82696939 -4.6484375 2.33984375 C-3 1 -3 1 0 0 Z " fill="#A4EAEB" transform="translate(37,26)"/>
<path d="M0 0 C-0.99 0.33 -1.98 0.66 -3 1 C-2.67 2.32 -2.34 3.64 -2 5 C-7.48946087 6.12029814 -10.83430559 5.79217969 -16 4 C-11.34158975 -1.14031476 -6.42886252 -0.40532233 0 0 Z " fill="#6ADDDC" transform="translate(42,8)"/>
<path d="M0 0 C3.80133442 1.67923025 6.97082702 4.11462834 10.25 6.625 C10.80429687 7.04523438 11.35859375 7.46546875 11.9296875 7.8984375 C13.28866663 8.92938719 14.64463835 9.96429911 16 11 C15.01 11.495 15.01 11.495 14 12 C11.375 10.6875 11.375 10.6875 9 9 C9 8.34 9 7.68 9 7 C8.071875 6.731875 7.14375 6.46375 6.1875 6.1875 C3.24218975 5.09022755 1.84982123 4.46642831 0 2 C0 1.34 0 0.68 0 0 Z " fill="#C8F4F2" transform="translate(295,163)"/>
<path d="M0 0 C0.33 0 0.66 0 1 0 C1.10957031 0.90621094 1.21914063 1.81242188 1.33203125 2.74609375 C2.25700022 9.8525627 3.45742463 16.29684675 6 23 C5.34 23 4.68 23 4 23 C-1.06978449 16.10509309 -0.1189181 8.16570935 0 0 Z " fill="#BCF1EE" transform="translate(21,159)"/>
<path d="M0 0 C0 0.66 0 1.32 0 2 C-0.825 2.474375 -1.65 2.94875 -2.5 3.4375 C-3.325 3.953125 -4.15 4.46875 -5 5 C-5 5.99 -5 6.98 -5 8 C-7.62596061 9.84526962 -9.95127546 10.98375849 -13 12 C-12.66700329 8.98264206 -12.01183726 8.01144059 -9.78515625 5.859375 C-8.88667969 5.16328125 -7.98820312 4.4671875 -7.0625 3.75 C-6.16660156 3.04359375 -5.27070313 2.3371875 -4.34765625 1.609375 C-2 0 -2 0 0 0 Z " fill="#B3ECEC" transform="translate(280,43)"/>
<path d="M0 0 C0 0.99 0 1.98 0 3 C-6.71972553 7.64573617 -11.89364595 8.68184286 -20 8 C-20 7.67 -20 7.34 -20 7 C-19.14277344 6.82984375 -18.28554688 6.6596875 -17.40234375 6.484375 C-10.8917371 5.10444935 -5.53529304 3.73310461 0 0 Z " fill="#C6F4F3" transform="translate(338,195)"/>
<path d="M0 0 C5.40839975 3.16589254 9.04174791 7.17514834 13 12 C12.67 12.66 12.34 13.32 12 14 C10.8450079 13.26418258 9.70125815 12.51069961 8.5625 11.75 C7.60537109 11.12351562 7.60537109 11.12351562 6.62890625 10.484375 C4.67638372 8.70509788 4.53275036 7.53056422 4 5 C2.69084721 3.96854629 1.35917857 2.96457834 0 2 C0 1.34 0 0.68 0 0 Z " fill="#C4F0F0" transform="translate(216,13)"/>
<path d="M0 0 C0.58265625 0.22558594 1.1653125 0.45117188 1.765625 0.68359375 C-0.68812378 5.46840388 -0.68812378 5.46840388 -3.296875 6.49609375 C-5.79412555 6.73776316 -6.95240813 6.82457718 -9.234375 5.68359375 C-8.16544282 4.64769037 -7.07859012 3.63025433 -5.984375 2.62109375 C-5.38109375 2.05261719 -4.7778125 1.48414063 -4.15625 0.8984375 C-2.234375 -0.31640625 -2.234375 -0.31640625 0 0 Z " fill="#9FE7E5" transform="translate(289.234375,36.31640625)"/>
<path d="M0 0 C1.32 0 2.64 0 4 0 C4 0.66 4 1.32 4 2 C6.97 2.495 6.97 2.495 10 3 C10 3.66 10 4.32 10 5 C11.98 5.66 13.96 6.32 16 7 C12.44573552 8.18475483 11.15605738 7.49053607 7.8515625 5.96484375 C5.0551821 4.50765818 2.54617258 2.86305311 0 1 C0 0.67 0 0.34 0 0 Z " fill="#C2F2F2" transform="translate(21,202)"/>
<path d="M0 0 C4.55067425 3.91175437 6.60111795 10.42233482 7.25390625 16.27734375 C7.25 18.1875 7.25 18.1875 7 21 C6.67 21 6.34 21 6 21 C5.81824219 20.10796875 5.63648438 19.2159375 5.44921875 18.296875 C5.19785156 17.12640625 4.94648438 15.9559375 4.6875 14.75 C4.32205078 13.00976562 4.32205078 13.00976562 3.94921875 11.234375 C3.02630212 8.08962205 1.94334562 6.54757913 0 4 C0 2.68 0 1.36 0 0 Z " fill="#D9F3F2" transform="translate(229,27)"/>
<path d="M0 0 C0.66 0.33 1.32 0.66 2 1 C-5.36794648 8.75014543 -5.36794648 8.75014543 -10 11 C-10.66 11 -11.32 11 -12 11 C-12 10.34 -12 9.68 -12 9 C-10.33333333 8 -8.66666667 7 -7 6 C-7 5.34 -7 4.68 -7 4 C-5.824375 3.566875 -5.824375 3.566875 -4.625 3.125 C-1.90328368 2.15087746 -1.90328368 2.15087746 0 0 Z " fill="#C4F4F1" transform="translate(223,196)"/>
<path d="M0 0 C1.4540625 0.0309375 1.4540625 0.0309375 2.9375 0.0625 C2.6075 0.7225 2.2775 1.3825 1.9375 2.0625 C1.2775 2.0625 0.6175 2.0625 -0.0625 2.0625 C-0.475 2.536875 -0.8875 3.01125 -1.3125 3.5 C-3.72038428 5.64989668 -5.91658584 5.71295398 -9.0625 6.0625 C-3.0625 0.0625 -3.0625 0.0625 0 0 Z " fill="#AEEBE9" transform="translate(315.0625,16.9375)"/>
<path d="M0 0 C0.99 0.33 1.98 0.66 3 1 C1.37982158 2.33918806 -0.24629343 3.6711969 -1.875 5 C-3.23238281 6.11375 -3.23238281 6.11375 -4.6171875 7.25 C-7 9 -7 9 -9 9 C-8.875 7.1875 -8.875 7.1875 -8 5 C-5.0625 3.375 -5.0625 3.375 -2 2 C-1.34 1.34 -0.68 0.68 0 0 Z " fill="#C2F2F1" transform="translate(285,60)"/>
<path d="M0 0 C0.33 0 0.66 0 1 0 C1.33 2.64 1.66 5.28 2 8 C1.34 8 0.68 8 0 8 C0 8.66 0 9.32 0 10 C-0.99 10 -1.98 10 -3 10 C-2.01 6.7 -1.02 3.4 0 0 Z " fill="#A0E5E7" transform="translate(8,29)"/>
<path d="M0 0 C0.66 0.33 1.32 0.66 2 1 C0.87926138 1.83905565 -0.24674547 2.67107831 -1.375 3.5 C-2.00148438 3.9640625 -2.62796875 4.428125 -3.2734375 4.90625 C-5 6 -5 6 -7 6 C-7.66 7.32 -8.32 8.64 -9 10 C-9.33 9.01 -9.66 8.02 -10 7 C-8.90081184 6.01524786 -7.7954398 5.03739527 -6.6875 4.0625 C-6.07261719 3.51722656 -5.45773438 2.97195312 -4.82421875 2.41015625 C-3 1 -3 1 0 0 Z " fill="#D4F5F5" transform="translate(37,26)"/>
<path d="M0 0 C0.33 0 0.66 0 1 0 C1.25 2.3125 1.25 2.3125 1 5 C-0.8125 6.875 -0.8125 6.875 -3 8 C-3.99 7.67 -4.98 7.34 -6 7 C-5.02433888 5.83040013 -4.044375 4.66438823 -3.0625 3.5 C-2.51722656 2.8503125 -1.97195312 2.200625 -1.41015625 1.53125 C-0.71212891 0.77328125 -0.71212891 0.77328125 0 0 Z " fill="#ADE8E6" transform="translate(213,180)"/>
<path d="M0 0 C1.2065625 0.0309375 1.2065625 0.0309375 2.4375 0.0625 C1.4475 1.5475 1.4475 1.5475 0.4375 3.0625 C0.4375 4.3825 0.4375 5.7025 0.4375 7.0625 C-0.2225 7.0625 -0.8825 7.0625 -1.5625 7.0625 C-2.2225 5.0825 -2.8825 3.1025 -3.5625 1.0625 C-2.5625 0.0625 -2.5625 0.0625 0 0 Z " fill="#97E9E7" transform="translate(216.5625,34.9375)"/>
<path d="M0 0 C3.65316671 1.24976756 4.78065836 1.67098753 7 5 C5.68 4.67 4.36 4.34 3 4 C3 4.66 3 5.32 3 6 C1.68 5.34 0.36 4.68 -1 4 C-0.67 2.68 -0.34 1.36 0 0 Z " fill="#A3EAE8" transform="translate(288,158)"/>
<path d="M0 0 C0.66 0 1.32 0 2 0 C0.68775452 3.93673644 -0.91910327 6.22719294 -4 9 C-4.33 8.01 -4.66 7.02 -5 6 C-4.360625 5.38125 -3.72125 4.7625 -3.0625 4.125 C-0.96116416 2.17402388 -0.96116416 2.17402388 0 0 Z " fill="#BFF0EE" transform="translate(229,187)"/>
<path d="M0 0 C0.33 0.99 0.66 1.98 1 3 C1.99 3.33 2.98 3.66 4 4 C3.34 4.66 2.68 5.32 2 6 C-0.31 5.34 -2.62 4.68 -5 4 C-3.35 2.68 -1.7 1.36 0 0 Z " fill="#A3E6E8" transform="translate(31,8)"/>
<path d="M0 0 C0.33 0 0.66 0 1 0 C1.36923077 6.4 1.36923077 6.4 -0.5 9.4375 C-0.995 9.953125 -1.49 10.46875 -2 11 C-2.19622241 6.78121808 -1.80230168 3.82989106 0 0 Z " fill="#ABE8E6" transform="translate(233,176)"/>
<path d="M0 0 C-1.33332095 3.99996286 -3.4957827 4.83782337 -7 7 C-7.66 6.67 -8.32 6.34 -9 6 C-7.8803014 4.99406757 -6.7540588 3.9954151 -5.625 3 C-4.68527344 2.1646875 -4.68527344 2.1646875 -3.7265625 1.3125 C-2 0 -2 0 0 0 Z " fill="#D5F3F3" transform="translate(306,23)"/>
<path d="" fill="#FEFEFE" transform="translate(0,0)"/>
<path d="" fill="#FEFEFE" transform="translate(0,0)"/>
<path d="" fill="#FEFEFE" transform="translate(0,0)"/>
<path d="" fill="#FEFEFE" transform="translate(0,0)"/>
<path d="" fill="#FEFEFE" transform="translate(0,0)"/>
<path d="" fill="#FEFEFE" transform="translate(0,0)"/>
<path d="" fill="#FEFEFE" transform="translate(0,0)"/>
<path d="" fill="#FEFEFE" transform="translate(0,0)"/>
<path d="" fill="#FEFEFE" transform="translate(0,0)"/>
<path d="" fill="#FEFEFE" transform="translate(0,0)"/>
<path d="" fill="#FEFEFE" transform="translate(0,0)"/>
<path d="" fill="#FEFEFE" transform="translate(0,0)"/>
<path d="" fill="#FEFEFE" transform="translate(0,0)"/>
<path d="" fill="#FEFEFE" transform="translate(0,0)"/>
</svg>
